<svg xmlns="http://www.w3.org/2000/svg" aria-hidden="true">
  <symbol id="mw-icon-home" viewBox="0 0 24 24"><path d="M3 11.5 12 4l9 7.5V20a1 1 0 0 1-1 1h-5v-6H9v6H4a1 1 0 0 1-1-1z" fill="none" stroke="currentColor" stroke-width="2" stroke-linecap="round" stroke-linejoin="round"/></symbol>
  <symbol id="mw-icon-income" viewBox="0 0 24 24"><circle cx="12" cy="12" r="9" fill="none" stroke="currentColor" stroke-width="2"/><path d="m8.5 8 3.5 4 3.5-4M9 12h6m-6 3h6m-3-3v5" fill="none" stroke="currentColor" stroke-width="2" stroke-linecap="round" stroke-linejoin="round"/></symbol>
  <symbol id="mw-icon-goal" viewBox="0 0 24 24"><circle cx="12" cy="12" r="9" fill="none" stroke="currentColor" stroke-width="2"/><circle cx="12" cy="12" r="4" fill="none" stroke="currentColor" stroke-width="2"/><path d="m14.8 9.2 5-5m-2 0h2v2" fill="none" stroke="currentColor" stroke-width="2" stroke-linecap="round" stroke-linejoin="round"/></symbol>
  <symbol id="mw-icon-calendar" viewBox="0 0 24 24"><rect x="3" y="5" width="18" height="16" rx="2" fill="none" stroke="currentColor" stroke-width="2"/><path d="M7 3v4m10-4v4M3 9h18" fill="none" stroke="currentColor" stroke-width="2" stroke-linecap="round"/></symbol>
  <symbol id="mw-icon-weekend" viewBox="0 0 24 24"><path d="M4 17h16M6 17v3m12-3v3M5 14a7 7 0 0 1 14 0v3H5zM12 5V2m-7 6L3 6m16 2 2-2" fill="none" stroke="currentColor" stroke-width="2" stroke-linecap="round" stroke-linejoin="round"/></symbol>
  <symbol id="mw-icon-settings" viewBox="0 0 24 24"><circle cx="12" cy="12" r="3" fill="none" stroke="currentColor" stroke-width="2"/><path d="M12 2v3m0 14v3M2 12h3m14 0h3M5 5l2 2m10 10 2 2M19 5l-2 2M7 17l-2 2" fill="none" stroke="currentColor" stroke-width="2" stroke-linecap="round"/></symbol>
  <symbol id="mw-icon-share" viewBox="0 0 24 24"><circle cx="18" cy="5" r="3" fill="none" stroke="currentColor" stroke-width="2"/><circle cx="6" cy="12" r="3" fill="none" stroke="currentColor" stroke-width="2"/><circle cx="18" cy="19" r="3" fill="none" stroke="currentColor" stroke-width="2"/><path d="m8.7 10.7 6.6-4.3m-6.6 6.9 6.6 4.3" fill="none" stroke="currentColor" stroke-width="2" stroke-linecap="round"/></symbol>
  <symbol id="mw-icon-privacy" viewBox="0 0 24 24"><path d="M12 3 4 6v5c0 5 3.2 8.5 8 10 4.8-1.5 8-5 8-10V6z" fill="none" stroke="currentColor" stroke-width="2" stroke-linejoin="round"/><rect x="9" y="10" width="6" height="5" rx="1" fill="none" stroke="currentColor" stroke-width="2"/></symbol>
  <symbol id="mw-icon-sound" viewBox="0 0 24 24"><path d="M4 9h4l5-4v14l-5-4H4zM17 9a4 4 0 0 1 0 6m2-9a8 8 0 0 1 0 12" fill="none" stroke="currentColor" stroke-width="2" stroke-linecap="round" stroke-linejoin="round"/></symbol>
  <symbol id="mw-icon-back" viewBox="0 0 24 24"><path d="m15 5-7 7 7 7" fill="none" stroke="currentColor" stroke-width="2" stroke-linecap="round" stroke-linejoin="round"/></symbol>
  <symbol id="mw-icon-close" viewBox="0 0 24 24"><path d="M5 5l14 14M19 5 5 19" fill="none" stroke="currentColor" stroke-width="2" stroke-linecap="round"/></symbol>
  <symbol id="mw-icon-more" viewBox="0 0 24 24"><circle cx="5" cy="12" r="1.5" fill="currentColor"/><circle cx="12" cy="12" r="1.5" fill="currentColor"/><circle cx="19" cy="12" r="1.5" fill="currentColor"/></symbol>
</svg>
